<?xml version="1.0" encoding="UTF-8"?>
<svg version="1.1" xmlns="http://www.w3.org/2000/svg" width="1254" height="1254">
<path d="M0 0 C413.82 0 827.64 0 1254 0 C1254 413.82 1254 827.64 1254 1254 C840.18 1254 426.36 1254 0 1254 C0 840.18 0 426.36 0 0 Z " fill="#FDFDFD" transform="translate(0,0)"/>
<path d="M0 0 C1.68977973 -0.00463667 3.37955842 -0.00966245 5.06933594 -0.01504517 C9.63578777 -0.02808918 14.20222496 -0.03459835 18.76869249 -0.03905582 C21.62960407 -0.04199944 24.49051176 -0.04610658 27.35142136 -0.05056 C36.32581582 -0.06421365 45.30020127 -0.0738908 54.27460539 -0.07776189 C64.59119524 -0.08223799 74.9076523 -0.09977414 85.2242018 -0.12876248 C93.227987 -0.1504622 101.23173506 -0.16047057 109.23554933 -0.16180301 C114.00237745 -0.16284508 118.7690804 -0.16862441 123.53587723 -0.18662262 C128.02576921 -0.20324756 132.51544381 -0.20518981 137.00535583 -0.19648361 C138.64023298 -0.1957209 140.27512253 -0.199953 141.90996933 -0.20994186 C155.59559063 -0.28856335 168.89920892 1.07263419 181.83349609 5.91113281 C182.53498779 6.16789795 183.23647949 6.42466309 183.95922852 6.68920898 C208.53010673 15.97625798 226.85391703 33.09798433 238.08740234 56.65332031 C245.1949865 73.4912134 247.72285396 94.70526194 241.14599609 112.16113281 C240.72060547 113.31871094 240.29521484 114.47628906 239.85693359 115.66894531 C236.89523297 123.12862977 233.42277369 129.1435549 228.14599609 135.16113281 C227.37771484 136.13953125 226.60943359 137.11792969 225.81787109 138.12597656 C216.31940523 149.5241356 200.56173134 156.36511964 186.14599609 158.16113281 C178.72946177 158.68580675 171.28262691 158.54850066 163.85253906 158.51416016 C161.62679454 158.51499241 159.40105017 158.51721307 157.17530823 158.52070618 C152.40589895 158.52563218 147.63661319 158.52160556 142.8672142 158.5106926 C135.30783845 158.49423613 127.74861505 158.5028429 120.1892395 158.51553345 C109.5758595 158.53135972 98.96251085 158.54040027 88.34912109 158.54003906 C87.34158976 158.5400129 87.34158976 158.5400129 86.31370427 158.53998621 C78.82878209 158.53953449 71.34386661 158.53621411 63.85894775 158.52911377 C62.85073909 158.5281652 62.85073909 158.5281652 61.82216258 158.52719746 C61.15069262 158.52656489 60.47922266 158.52593233 59.78740513 158.52528059 C58.43330265 158.52401081 57.07920015 158.5227454 55.72509766 158.52148438 C55.05606186 158.52085618 54.38702607 158.52022799 53.69771646 158.51958077 C42.4874175 158.5095797 31.27720905 158.51932797 20.06692803 158.54366839 C12.57080066 158.55880605 5.07514972 158.55156158 -2.42094731 158.52695823 C-7.10805311 158.51680455 -11.79494612 158.52767031 -16.48202705 158.5440731 C-18.63446877 158.54749085 -20.7869448 158.54257498 -22.93934059 158.52810478 C-48.66342326 158.36604869 -72.61570619 164.23805384 -91.85400391 182.16113281 C-98.84546566 189.8657537 -104.21073295 198.72997095 -107.79150391 208.47363281 C-108.0423877 209.14716797 -108.29327148 209.82070313 -108.55175781 210.51464844 C-111.48120188 218.58492535 -113.68289275 226.86095566 -115.85400391 235.16113281 C-114.83112143 232.62219238 -113.82343441 230.08041023 -112.85400391 227.52050781 C-112.52400391 226.65941406 -112.19400391 225.79832031 -111.85400391 224.91113281 C-111.52400391 224.03972656 -111.19400391 223.16832031 -110.85400391 222.27050781 C-109.85400391 220.16113281 -109.85400391 220.16113281 -107.85400391 219.16113281 C-107.17917969 220.88396484 -107.17917969 220.88396484 -106.49072266 222.64160156 C-97.81569144 243.93695133 -84.37385321 256.06066801 -63.36572266 265.31738281 C-51.58635239 270.26630979 -39.19976293 273.4899479 -26.7902832 276.42553711 C-23.0467516 277.31718746 -19.40037164 278.28100513 -15.76806641 279.55566406 C-9.64141025 281.65665007 -3.33604248 283.09304717 2.95074463 284.62469482 C23.53568393 289.65489005 44.02844562 294.96761998 64.33349609 301.03613281 C65.0995517 301.26479034 65.8656073 301.49344788 66.65487671 301.72903442 C90.92398858 308.99531213 90.92398858 308.99531213 99.95068359 313.16894531 C102.24013222 314.20367832 104.55470303 315.12521172 106.89599609 316.03613281 C143.61521121 330.66732776 179.98029117 355.9717933 202.14599609 389.16113281 C202.61408691 389.86028809 203.08217773 390.55944336 203.56445312 391.27978516 C214.69707354 408.08757918 223.74792437 425.41622055 231.14599609 444.16113281 C231.59587891 445.29421875 232.04576172 446.42730469 232.50927734 447.59472656 C238.75322964 464.21136833 243.35515881 481.63866155 246.14599609 499.16113281 C246.32646484 500.22203125 246.50693359 501.28292969 246.69287109 502.37597656 C247.0156169 504.27577575 247.33325968 506.17645687 247.64331055 508.07836914 C248.15672814 511.22694803 248.6794236 514.37386858 249.20458984 517.52050781 C249.47033813 519.11330566 249.47033813 519.11330566 249.74145508 520.73828125 C249.87495361 521.53782227 250.00845215 522.33736328 250.14599609 523.16113281 C251.03794678 522.95955566 251.92989746 522.75797852 252.84887695 522.55029297 C256.19796929 521.79349243 259.54709415 521.03683608 262.89624023 520.28027344 C264.33831033 519.95448374 265.78036791 519.62863867 267.22241211 519.30273438 C270.65122956 518.52783352 274.08018491 517.75355754 277.50952148 516.98095703 C279.68881397 516.48964692 281.867796 515.99695204 284.04614258 515.50146484 C294.38551541 513.16463431 294.38551541 513.16463431 299.45849609 516.03613281 C302.89716466 518.75508005 303.04753703 519.35939474 303.58349609 523.72363281 C303.46217878 529.39521717 300.42590494 532.74758557 297.14599609 537.16113281 C295.91966759 538.92723525 294.71056947 540.70448848 293.50146484 542.48242188 C285.89849524 553.6513376 278.09415069 564.68300841 270.33447266 575.74316406 C261.64110792 588.13673326 253.00345727 600.56542546 244.47802734 613.07519531 C239.08487611 620.97363413 233.57139422 628.76768491 227.92749023 636.48925781 C225.29899063 640.10447629 222.73576204 643.73820252 220.31005859 647.49316406 C219.86863525 648.17564209 219.42721191 648.85812012 218.97241211 649.5612793 C218.15972016 650.83110066 217.35720981 652.10752743 216.56762695 653.3918457 C213.95892969 657.4757506 211.5236447 660.04274743 207.14599609 662.16113281 C201.74398433 663.12201126 197.60679395 662.47130589 192.93969727 659.42089844 C192.34777588 659.00517578 191.75585449 658.58945312 191.14599609 658.16113281 C189.74661153 657.23351368 188.34684546 656.30646993 186.94677734 655.37988281 C186.18445801 654.86554687 185.42213867 654.35121094 184.63671875 653.82128906 C180.95441947 651.36690413 177.20890119 649.01500619 173.46948242 646.64892578 C162.78972484 639.87939785 152.24302245 632.92652863 141.74188232 625.8850708 C133.33531424 620.25021503 124.85259884 614.75409266 116.29296875 609.35473633 C108.37382717 604.34391361 100.57469755 599.16214896 92.79858398 593.93261719 C88.23270332 590.86591928 83.65870794 587.8292231 78.99365234 584.91503906 C77.81959839 584.1777356 77.81959839 584.1777356 76.62182617 583.42553711 C75.19473643 582.5347213 73.76144046 581.65372739 72.32055664 580.78540039 C68.12334846 578.1588574 65.5226499 575.64436613 63.14599609 571.16113281 C63.14599609 567.06757266 63.73537856 564.82105385 65.89599609 561.34863281 C70.65238875 556.72436218 76.71453349 556.50137893 83.02099609 555.66113281 C88.91579582 554.86877421 94.42043088 553.8165531 100.14599609 552.16113281 C102.28523179 551.89341264 104.43245578 551.68114677 106.58349609 551.53613281 C107.63408203 551.46136719 108.68466797 551.38660156 109.76708984 551.30957031 C110.55212891 551.26058594 111.33716797 551.21160156 112.14599609 551.16113281 C109.0697302 530.0118048 100.77137768 509.19463609 84.14599609 495.16113281 C75.17040819 488.53573174 65.62065792 484.70154596 55.14599609 481.16113281 C54.14568359 480.80792969 53.14537109 480.45472656 52.11474609 480.09082031 C41.99764534 476.92257034 31.40999918 475.90656801 20.89819336 474.99658203 C9.17980194 473.9508354 -2.46024851 472.30635369 -14.10986328 470.68017578 C-17.62192517 470.19330544 -21.13598232 469.72466215 -24.65087891 469.25878906 C-48.28659721 466.0401074 -72.07745156 461.33081037 -94.85400391 454.16113281 C-95.94890137 453.81711426 -97.04379883 453.4730957 -98.171875 453.11865234 C-120.18474798 446.13214765 -141.4096655 437.9827663 -161.85400391 427.16113281 C-162.82515137 426.65163086 -162.82515137 426.65163086 -163.81591797 426.13183594 C-182.49613115 416.25367298 -199.45086818 403.60157255 -214.85400391 389.16113281 C-215.59457031 388.47156494 -215.59457031 388.47156494 -216.35009766 387.76806641 C-229.33696884 375.5787057 -240.05921138 361.64598118 -248.85400391 346.16113281 C-249.18207031 345.5978125 -249.51013672 345.03449219 -249.84814453 344.45410156 C-264.46158758 319.25080208 -272.90207263 288.86379747 -273.05712891 259.74316406 C-273.06282898 258.8828508 -273.06852905 258.02253754 -273.07440186 257.13615417 C-273.08377355 255.328656 -273.09035428 253.52114134 -273.09423828 251.71362305 C-273.10391975 248.99724411 -273.13500886 246.28163121 -273.16650391 243.56542969 C-273.22245187 234.17029753 -272.73228679 225.44984333 -270.57470703 216.29052734 C-269.87792987 213.26502271 -269.44866454 210.3067192 -269.10400391 207.22363281 C-262.81364726 164.10511976 -238.14161703 121.37635433 -208.58837891 90.08300781 C-206.4496119 87.81689879 -204.41374817 85.49137099 -202.41650391 83.09863281 C-172.90591721 49.27114974 -127.32972415 24.75393458 -84.85400391 12.16113281 C-83.63455078 11.79503906 -82.41509766 11.42894531 -81.15869141 11.05175781 C-66.99836528 6.90287245 -52.84512743 4.51739221 -38.22900391 2.59863281 C-36.78050049 2.40829468 -36.78050049 2.40829468 -35.30273438 2.21411133 C-32.48737291 1.85084663 -29.67355214 1.49065822 -26.85400391 1.16113281 C-26.2291724 1.07930409 -25.6043409 0.99747538 -24.9605751 0.913167 C-16.65449729 -0.06499136 -8.34889803 0.00536975 0 0 Z " fill="#0AB9AD" transform="translate(603.85400390625,176.8388671875)"/>
<path d="M0 0 C1.22203125 0.42539062 2.4440625 0.85078125 3.703125 1.2890625 C24.17313568 8.7455013 39.50851322 24.1584633 50.5625 42.5625 C56.33875322 51.9135618 62.69945665 59.85526492 70.52978516 67.54296875 C71.78594233 68.78786182 72.99762439 70.07736346 74.19921875 71.375 C97.81962036 96.72855477 139.31197503 110.30439215 173 112 C180.04025239 112.21708464 187.08192483 112.24234584 194.125 112.25 C195.10864532 112.25233643 196.09229065 112.25467285 197.10574341 112.25708008 C209.34104611 112.26803302 221.16843344 111.85797983 233.28540039 110.08276367 C256.64055978 106.79061042 280.55500572 107.00265346 301 120 C315.63186672 131.02023069 326.83239136 146.74426495 330 165 C331.84908254 192.58321064 324.96520595 213.1131864 306.6875 234.0625 C293.49307777 248.29089739 278.32860481 258.50831113 261 267 C260.39140137 267.3000293 259.78280273 267.60005859 259.15576172 267.90917969 C242.81824182 275.82961624 225.1396025 281.092487 207.18359375 283.68066406 C204.78486649 284.03146183 202.39295424 284.41651744 200 284.8046875 C198.27099701 285.07915805 196.54183238 285.35261251 194.8125 285.625 C194.04139893 285.74842773 193.27029785 285.87185547 192.47583008 285.99902344 C168.90124238 289.56397313 144.55697226 289.03513244 120.9375 286.1875 C119.89692444 286.06334213 119.89692444 286.06334213 118.83532715 285.93667603 C109.11802182 284.75273546 99.57311973 283.03557969 90 281 C89.12190674 280.81961182 88.24381348 280.63922363 87.33911133 280.45336914 C39.65735592 270.51159644 -6.49965642 248.66727937 -42 215 C-43.32829305 213.86905334 -44.6613515 212.74367019 -46 211.625 C-68.77504202 191.73169799 -87.70491288 162.62582303 -97 134 C-97.23058105 133.30519531 -97.46116211 132.61039063 -97.69873047 131.89453125 C-106.96612486 103.64859358 -108.07937081 71.2243478 -95.01660156 44.00488281 C-84.39390056 23.0554062 -67.56911391 7.6262417 -45.2890625 -0.32421875 C-30.96665558 -4.702191 -14.14466024 -5.08443192 0 0 Z " fill="#017AF3" transform="translate(406,696)"/>
<path d="M0 0 C1.0046933 -0.00953201 2.0093866 -0.01906403 3.04452515 -0.02888489 C4.12891876 -0.02797348 5.21331238 -0.02706207 6.33056641 -0.02612305 C7.44646149 -0.03040817 8.56235657 -0.0346933 9.71206665 -0.03910828 C12.07415081 -0.04485486 14.43625267 -0.04534944 16.79833984 -0.04101562 C20.4109525 -0.03786029 24.02274282 -0.06129563 27.63525391 -0.08666992 C29.92952371 -0.08894334 32.22379571 -0.08964621 34.51806641 -0.08862305 C35.59841156 -0.09783279 36.67875671 -0.10704254 37.7918396 -0.11653137 C44.58805363 -0.07465967 48.15356705 0.69371433 53.30712891 5.2746582 C56.23800446 8.62423027 56.33979707 11.86572329 56.27587891 16.2121582 C55.82931074 20.42265805 54.08077656 23.34406942 50.99462891 26.1496582 C49.05712891 27.2746582 49.05712891 27.2746582 47.05712891 27.2746582 C47.05712891 27.9346582 47.05712891 28.5946582 47.05712891 29.2746582 C40.06466128 29.37633496 33.07238533 29.44623991 26.0793457 29.49438477 C23.70199458 29.51446183 21.32469261 29.54172934 18.94750977 29.57641602 C15.52429046 29.62510435 12.10172585 29.64766674 8.67822266 29.6652832 C7.62066269 29.68592834 6.56310272 29.70657349 5.47349548 29.72784424 C-0.90529854 29.72977044 -4.75892169 29.08135445 -9.94287109 25.2746582 C-13.53921251 20.78660098 -13.49874533 16.7279874 -13.36865234 11.16137695 C-12.72140655 6.77316924 -11.23439157 5.18344374 -7.94287109 2.2746582 C-4.69085354 0.1066465 -3.7614324 0.0195986 0 0 Z " fill="#17CD90" transform="translate(776.94287109375,881.725341796875)"/>
<path d="M0 0 C1.52362656 -0.01142029 1.52362656 -0.01142029 3.07803345 -0.02307129 C5.2212682 -0.03384969 7.36455538 -0.03673462 9.5078125 -0.03222656 C12.7717329 -0.03125516 16.03329414 -0.0728855 19.296875 -0.1171875 C21.3854118 -0.12239577 23.47395671 -0.12508267 25.5625 -0.125 C27.01443253 -0.1495929 27.01443253 -0.1495929 28.49569702 -0.17468262 C34.97445674 -0.10922414 39.44639903 1.18812341 44.4140625 5.46875 C47.5834409 9.92568838 48.19939207 14.15185658 47.4140625 19.46875 C45.83705927 23.64780855 44.27473421 26.17647617 40.4140625 28.46875 C37.51162903 29.43622782 35.60156089 29.61129148 32.57885742 29.64575195 C31.59741257 29.65858719 30.61596771 29.67142242 29.6047821 29.68464661 C28.54539932 29.69203354 27.48601654 29.69942047 26.39453125 29.70703125 C24.75754021 29.71913887 24.75754021 29.71913887 23.08747864 29.73149109 C20.77667833 29.74532661 18.46585764 29.75605114 16.1550293 29.76391602 C12.62574463 29.78113204 9.09739589 29.82502459 5.56835938 29.86914062 C3.32292355 29.87926743 1.07747977 29.88778357 -1.16796875 29.89453125 C-2.22127884 29.91203934 -3.27458893 29.92954742 -4.3598175 29.94758606 C-10.42406916 29.92968178 -13.99348573 29.56020703 -18.5859375 25.46875 C-21.45321831 21.35898083 -22.18240748 17.63155442 -22 12.71484375 C-21.29336941 8.88170612 -19.4687061 6.05653763 -16.5859375 3.46875 C-11.12557163 -0.02854668 -6.27537029 0.00130037 0 0 Z " fill="#17CD8D" transform="translate(890.5859375,818.53125)"/>
<path d="M0 0 C0.90809921 -0.0038269 1.81619843 -0.00765381 2.7518158 -0.01159668 C4.66211055 -0.0143063 6.57244302 -0.00701194 8.48266602 0.00976562 C11.3974914 0.03121429 14.30985928 0.00991928 17.22460938 -0.015625 C19.08724499 -0.01298204 20.94987908 -0.00785772 22.8125 0 C23.67827164 -0.00809692 24.54404327 -0.01619385 25.43605042 -0.02453613 C30.91416308 0.05992155 33.94426704 0.97678919 38.33984375 4.53125 C39.12359375 5.046875 39.90734375 5.5625 40.71484375 6.09375 C43.46708438 10.22211094 42.91810248 14.7338442 42.33984375 19.53125 C40.55213871 24.1991465 37.68225302 26.17806709 33.33984375 28.53125 C29.98906229 29.09423997 26.69606149 29.06894552 23.3046875 29.02734375 C22.34840958 29.02879898 21.39213165 29.03025421 20.40687561 29.03175354 C18.39223167 29.03009873 16.37757454 29.01858445 14.36303711 28.99780273 C11.28379546 28.96881074 8.20627306 28.97721036 5.12695312 28.99023438 C3.16535624 28.98399749 1.20376477 28.97560693 -0.7578125 28.96484375 C-2.1345388 28.96924721 -2.1345388 28.96924721 -3.53907776 28.97373962 C-9.84037243 28.88092777 -13.14946757 27.70265643 -17.97265625 23.53125 C-20.54431185 18.95941783 -20.27871662 14.65756904 -19.66015625 9.53125 C-18.12192279 5.2784869 -15.66492738 3.55667022 -11.74758911 1.38476562 C-7.91970887 -0.18038919 -4.08440715 -0.03828797 0 0 Z " fill="#0FBFBA" transform="translate(891.66015625,880.46875)"/>
<path d="M0 0 C1.87187172 -0.01650795 3.74368175 -0.0437294 5.61523438 -0.08203125 C8.32308443 -0.13713703 11.0294557 -0.15872893 13.73779297 -0.17333984 C14.97887314 -0.2073439 14.97887314 -0.2073439 16.24502563 -0.24203491 C22.32530844 -0.22020363 26.53515297 1.3932271 31.19873047 5.35009766 C34.17420619 9.81331124 33.81936615 14.11582085 33.19873047 19.35009766 C31.20904594 23.26085691 29.83339401 24.92698863 26.19873047 27.35009766 C24.20793152 27.62425232 24.20793152 27.62425232 21.91430664 27.65649414 C21.0529863 27.67248154 20.19166595 27.68846893 19.304245 27.7049408 C18.37610489 27.7103035 17.44796478 27.7156662 16.49169922 27.72119141 C15.53354813 27.73021988 14.57539703 27.73924835 13.58821106 27.74855042 C11.55989713 27.76306187 9.5315363 27.77194187 7.50317383 27.77563477 C4.40804528 27.78751393 1.31492151 27.83667618 -1.77978516 27.88720703 C-3.75178065 27.89667338 -5.72378837 27.9039074 -7.69580078 27.90869141 C-8.61786819 27.92822372 -9.53993561 27.94775604 -10.48994446 27.96788025 C-14.87403516 27.93728078 -17.86131819 27.7769589 -21.34692383 24.9597168 C-25.20448332 20.85810997 -26.42628417 17.19123091 -26.32861328 11.48291016 C-25.27473456 7.2205562 -21.97611871 4.23044725 -18.80126953 1.35009766 C-13.70408363 -1.1984953 -5.67266987 0.0366362 0 0 Z " fill="#23B0D4" transform="translate(793.80126953125,942.64990234375)"/>
<path d="M0 0 C2.1347378 -0.00654307 4.26477064 -0.06097948 6.39868164 -0.11791992 C17.81838602 -0.25790221 17.81838602 -0.25790221 22.25610352 3.46606445 C25.99152194 7.44271223 26.17721508 10.67825399 26.12329102 16.0090332 C25.70818299 19.71657336 24.30538256 21.81452176 21.83813477 24.5559082 C16.82113276 27.88884641 10.41995977 26.96622062 4.62133789 26.98144531 C2.47629306 26.99333527 0.33413487 27.04253415 -1.81030273 27.09301758 C-3.1852888 27.10248414 -4.56029241 27.10971807 -5.93530273 27.11450195 C-7.17715332 27.12795654 -8.41900391 27.14141113 -9.69848633 27.15527344 C-14.70476897 26.28889645 -17.44991932 23.81256419 -20.53686523 19.7434082 C-22.00829307 14.59341078 -21.8690635 10.89453349 -19.41186523 6.2434082 C-13.77453675 -0.49006749 -8.28532344 -0.00284556 0 0 Z " fill="#30BAD7" transform="translate(900.161865234375,941.444091796875)"/>
<path d="M0 0 C0.97646484 -0.01546875 1.95292969 -0.0309375 2.95898438 -0.046875 C8.97411318 -0.01425057 12.48170876 0.51670327 17.0625 4.5 C19.94766342 7.9621961 20.60167865 10.98796884 20.4140625 15.5078125 C19.67023926 19.72281086 17.30756992 22.46532957 14.09765625 25.1328125 C9.51617751 27.19654166 5.1572232 27.05265246 0.1875 27.0625 C-0.78058594 27.09923828 -1.74867188 27.13597656 -2.74609375 27.17382812 C-8.8512468 27.21120661 -12.25846892 26.35590986 -16.69970703 22.08569336 C-19.56894419 18.4100138 -19.41705309 13.94676503 -18.9375 9.5 C-15.07011116 0.54394163 -8.82112557 -0.13918936 0 0 Z " fill="#5AB7EE" transform="translate(797.9375,1001.5)"/>
<path d="M0 0 C1.31613281 -0.02578125 2.63226562 -0.0515625 3.98828125 -0.078125 C7.84155849 0.26366517 9.64644502 0.93300573 12.6875 3.25 C15.85705197 7.18461624 16.22098798 10.27077887 15.6875 15.25 C14.00376667 18.95421332 12.19406047 21.20354832 8.6875 23.25 C5.95783905 23.59772751 3.53744054 23.75999978 0.8125 23.75 C-0.22970703 23.79253906 -0.22970703 23.79253906 -1.29296875 23.8359375 C-5.19629858 23.85063931 -7.74586439 23.30142306 -10.7578125 20.90625 C-14.25232973 17.27280701 -14.70877242 14.31991348 -14.671875 9.3203125 C-14.03070971 5.6266429 -11.95318388 3.82781045 -9.3125 1.25 C-6.32534862 -0.24357569 -3.27362064 0.02496565 0 0 Z " fill="#91D3EE" transform="translate(901.3125,1001.75)"/>
<path d="M0 0 C57.42 0 114.84 0 174 0 C174.33 0.66 174.66 1.32 175 2 C166.76293819 3.15196515 158.57694188 3.14140589 150.27832031 3.12939453 C148.69891825 3.13075149 147.11951651 3.13253308 145.54011536 3.13470459 C141.27391176 3.13924235 137.0077325 3.13750486 132.74152851 3.1343255 C128.26890818 3.13178474 123.79628985 3.13414405 119.32366943 3.13571167 C111.81880318 3.1375276 104.31394679 3.13514139 96.80908203 3.13037109 C88.13562522 3.12492165 79.46219188 3.1266984 70.78873563 3.1321975 C63.33206012 3.13673558 55.87539168 3.137376 48.41871524 3.13475883 C43.96917508 3.13320091 39.51964596 3.13298919 35.07010651 3.13629532 C30.89056993 3.13918438 26.71106368 3.13717926 22.53153038 3.13140106 C20.99846891 3.13007937 19.46540489 3.13045756 17.93234444 3.13266373 C15.83915958 3.13539823 13.74607175 3.13196605 11.65289307 3.12698364 C9.89643652 3.1264181 9.89643652 3.1264181 8.104496 3.12584114 C5.28204172 3.0114326 2.74345781 2.64771101 0 2 C0 1.34 0 0.68 0 0 Z " fill="#3ADD92" transform="translate(587,177)"/>
<path d="M0 0 C-0.33 0.99 -0.66 1.98 -1 3 C-3.10366355 3.49610689 -5.21169003 3.97807491 -7.33398438 4.38720703 C-12.18215023 5.50157482 -16.67955207 7.50442285 -21.25 9.4375 C-22.29124023 9.87562012 -23.33248047 10.31374023 -24.40527344 10.76513672 C-38.44898863 16.78174203 -52.09953368 23.61259756 -64.64453125 32.37109375 C-66.58298299 33.71161511 -68.49165285 34.88492846 -70.5625 36 C-83.97970143 43.80637174 -95.6580784 54.49172061 -107 65 C-107.99 64.67 -108.98 64.34 -110 64 C-84.83124385 39.80113812 -36.61914203 0 0 0 Z " fill="#1FDA88" transform="translate(516,191)"/>
<path d="M0 0 C1.49075284 2.23612926 2.67760099 4.25952705 3.83984375 6.65234375 C4.18080078 7.34650391 4.52175781 8.04066406 4.87304688 8.75585938 C5.58039218 10.20559279 6.28613273 11.65611032 6.99023438 13.10742188 C8.73994092 16.66285193 10.44668937 19.93442642 13 23 C12.67 23.66 12.34 24.32 12 25 C8.88631154 22.9242077 8.1361279 21.83056111 6.4375 18.625 C6.02371094 17.85414063 5.60992187 17.08328125 5.18359375 16.2890625 C4.43097451 14.83350186 3.69230796 13.37057673 2.97265625 11.8984375 C1.92319428 9.76099123 1.92319428 9.76099123 0 7 C-0.99 10.3 -1.98 13.6 -3 17 C-3.66 17 -4.32 17 -5 17 C-5.04898437 17.556875 -5.09796875 18.11375 -5.1484375 18.6875 C-5.22320312 19.450625 -5.29796875 20.21375 -5.375 21 C-5.44460938 21.7425 -5.51421875 22.485 -5.5859375 23.25 C-6 26 -6 26 -7.0390625 29.73046875 C-8.22039083 34.30020295 -8.1554373 38.62217941 -8 43.3125 C-7.73207402 51.59811103 -7.73207402 51.59811103 -10 55 C-10.52084326 35.50977808 -8.21592582 19.19104652 -1 1 C-0.67 0.67 -0.34 0.34 0 0 Z " fill="#149B78" transform="translate(495,396)"/>
<path d="M0 0 C-2.31646259 2.31646259 -2.86273162 2.2759094 -6 2.5 C-12.15590103 3.06503439 -18.21008385 4.03206991 -24.0625 6.0625 C-27.34317048 7.10952249 -30.40271412 7.39637772 -33.81640625 7.71875 C-38.39941911 8.30904862 -42.77712882 9.515085 -45.75 13.125 C-47.31749751 16.05101418 -47.31749751 16.05101418 -46.5 19.6875 C-45.32580293 23.16329405 -45.32580293 23.16329405 -42.375 24.4375 C-41.59125 24.623125 -40.8075 24.80875 -40 25 C-40 25.99 -40 26.98 -40 28 C-44.15446976 25.50731815 -47.18439974 23.59240065 -49 19 C-48.90589344 13.7300329 -47.78516919 10.6800256 -44 7 C-39.32845737 4.59208131 -34.26573974 4.18493019 -29.125 3.5 C-23.23455908 2.70822729 -17.68844911 1.72570928 -12 0 C-7.92681464 -0.7979835 -3.98932237 -1.49599589 0 0 Z " fill="#2FA3EF" transform="translate(716,729)"/>
<path d="M0 0 C0 5.70161247 -4.77681287 9.75293684 -8.6015625 13.65234375 C-10.02631886 15.05158795 -11.45111736 16.45079698 -12.87988281 17.84594727 C-17.50179932 22.40054662 -22.21010506 27.29471932 -25.05859375 33.19140625 C-26 35 -26 35 -28 36 C-29.04644066 37.63790712 -30.0398183 39.31008021 -31 41 C-33.60128046 45.37488077 -36.29390709 49.68950417 -39 54 C-39.495 52.515 -39.495 52.515 -40 51 C-38.67725038 48.43641415 -37.31285637 46.09943821 -35.75 43.6875 C-35.29544434 42.9761792 -34.84088867 42.2648584 -34.37255859 41.53198242 C-26.78223763 29.85306743 -17.86582351 19.54408006 -8.33203125 9.42919922 C-5.47158004 6.36008606 -2.73159263 3.18365197 0 0 Z " fill="#1FD695" transform="translate(405,256)"/>
<path d="M0 0 C1.26186918 4.26459552 0.69617843 8.09431855 0.125 12.4375 C0.03347656 13.18837891 -0.05804688 13.93925781 -0.15234375 14.71289062 C-0.62676981 18.5116401 -1.18143695 22.25693441 -2 26 C-2.66 26 -3.32 26 -4 26 C-3.84402344 27.30453125 -3.68804687 28.6090625 -3.52734375 29.953125 C-2.44582381 39.48436142 -1.564797 48.45783953 -3 58 C-3.33 58 -3.66 58 -4 58 C-6.49788981 38.82265244 -6.49008002 18.39796596 0 0 Z " fill="#1A99F4" transform="translate(307,749)"/>
<path d="M0 0 C0.99 0.33 1.98 0.66 3 1 C-8.06627254 11.77985137 -21.47696463 21.44353481 -36 27 C-36.99 26.67 -37.98 26.34 -39 26 C-37.37750059 25.16180842 -35.75191503 24.3295884 -34.125 23.5 C-33.22007812 23.0359375 -32.31515625 22.571875 -31.3828125 22.09375 C-29 21 -29 21 -27 21 C-27 20.34 -27 19.68 -27 19 C-26.44570313 18.74605469 -25.89140625 18.49210938 -25.3203125 18.23046875 C-24.59585938 17.88628906 -23.87140625 17.54210937 -23.125 17.1875 C-22.04605469 16.68283203 -22.04605469 16.68283203 -20.9453125 16.16796875 C-18.69457194 15.00532903 -18.69457194 15.00532903 -17 12 C-15.700625 11.38125 -15.700625 11.38125 -14.375 10.75 C-10.63001377 8.80815529 -7.92292625 6.45593828 -4.83203125 3.62109375 C-3 2 -3 2 0 0 Z " fill="#1569F3" transform="translate(704,935)"/>
<path d="M0 0 C9.89600228 4.53925322 15.93789868 15.038823 20.171875 24.6640625 C21.52934091 28.49314086 22.39728853 31.89468514 22 36 C21.34 35.67 20.68 35.34 20 35 C20 34.01 20 33.02 20 32 C19.34 32 18.68 32 18 32 C17.34 28.04 16.68 24.08 16 20 C15.34 20 14.68 20 14 20 C13.76925781 19.48050781 13.53851562 18.96101562 13.30078125 18.42578125 C11.11398703 13.74967188 8.88175957 10.50305132 5 7 C3.2958946 5.37163262 1.61974559 3.71230248 0 2 C0 1.34 0 0.68 0 0 Z " fill="#2377E2" transform="translate(711,821)"/>
<path d="M0 0 C0.33 0.99 0.66 1.98 1 3 C0.43410156 3.19335938 -0.13179688 3.38671875 -0.71484375 3.5859375 C-1.44832031 3.84632813 -2.18179687 4.10671875 -2.9375 4.375 C-4.03384766 4.75785156 -4.03384766 4.75785156 -5.15234375 5.1484375 C-7.18682116 5.85271413 -7.18682116 5.85271413 -8 8 C-9.12728516 8.67095703 -9.12728516 8.67095703 -10.27734375 9.35546875 C-16.80779318 13.29997264 -22.14333728 19.46044148 -26 26 C-26.99 25.67 -27.98 25.34 -29 25 C-10.31524008 0 -10.31524008 0 0 0 Z " fill="#1EA4F4" transform="translate(348,702)"/>
<path d="M0 0 C2.91515791 -0.19519949 5.60308105 -0.20641074 8.5078125 -0.07421875 C9.34843231 -0.04777786 10.18905212 -0.02133698 11.05514526 0.00590515 C13.74580647 0.09382985 16.43514201 0.2029203 19.125 0.3125 C20.94656675 0.37574211 22.76818181 0.43760871 24.58984375 0.49804688 C29.06061322 0.64939631 33.53030681 0.81973479 38 1 C36 3 36 3 32.28466797 3.22705078 C30.68713948 3.22673351 29.08958973 3.21539982 27.4921875 3.1953125 C26.23125778 3.19106766 26.23125778 3.19106766 24.94485474 3.18673706 C22.25475954 3.1755243 19.5649949 3.15041803 16.875 3.125 C15.05339022 3.1149716 13.23177523 3.10584551 11.41015625 3.09765625 C6.93997642 3.07558142 2.47004429 3.04104434 -2 3 C-1.34 2.01 -0.68 1.02 0 0 Z " fill="#09CA97" transform="translate(754,332)"/>
<path d="M0 0 C0.68707555 2.49064888 1 4.37886292 1 7 C1.66 7 2.32 7 3 7 C2.67 8.32 2.34 9.64 2 11 C1.67 10.34 1.34 9.68 1 9 C-1.31 15.27 -3.62 21.54 -6 28 C-7.01284974 23.94860102 -6.95224083 22.91957701 -5.8203125 19.12109375 C-5.55089844 18.20005859 -5.28148437 17.27902344 -5.00390625 16.33007812 C-4.71386719 15.37552734 -4.42382812 14.42097656 -4.125 13.4375 C-3.84269531 12.47908203 -3.56039063 11.52066406 -3.26953125 10.53320312 C-2.22603261 7.00459516 -1.1636613 3.49098391 0 0 Z " fill="#B6E9DC" transform="translate(494,388)"/>
<path d="M0 0 C0.66 0 1.32 0 2 0 C1.58626961 6.16315613 0.44273823 11.33468222 -2 17 C-2.28488281 17.67804687 -2.56976562 18.35609375 -2.86328125 19.0546875 C-3.56383426 20.7081254 -4.28023925 22.35483257 -5 24 C-5.33 24 -5.66 24 -6 24 C-6.24042276 19.91281305 -5.42258812 16.82320557 -4 13 C-3.34 13 -2.68 13 -2 13 C-2 10.36 -2 7.72 -2 5 C-1.34 5 -0.68 5 0 5 C0 3.35 0 1.7 0 0 Z " fill="#1D72E7" transform="translate(733,884)"/>
<path d="M0 0 C0.99 0.33 1.98 0.66 3 1 C3.8582887 3.36029394 4.44026881 5.5597331 5 8 C5.27199219 9.04929687 5.54398438 10.09859375 5.82421875 11.1796875 C6.10910156 12.31664062 6.39398437 13.45359375 6.6875 14.625 C6.95949219 15.71039062 7.23148438 16.79578125 7.51171875 17.9140625 C7.99855563 20.99087158 7.8244353 23.02317991 7 26 C5.26758566 22.92334715 4.58462554 20.23083695 4.0625 16.75 C3.46140004 13.15301783 2.71345421 9.89326419 1.375 6.5 C0 3 0 3 0 0 Z " fill="#23A1E4" transform="translate(710,702)"/>
<path d="M0 0 C8.61298726 3.95474912 18.39833344 13.19876835 22.2578125 21.8046875 C22.62519531 22.89136719 22.62519531 22.89136719 23 24 C18.85060446 19.98445593 15.01958504 15.71700293 11.18359375 11.40234375 C7.11933019 6.90710281 7.11933019 6.90710281 2.25 3.375 C1.5075 2.92125 0.765 2.4675 0 2 C0 1.34 0 0.68 0 0 Z " fill="#24D989" transform="translate(811,197)"/>
<path d="M0 0 C-6.00165755 2.86442747 -12.38644305 5.12012619 -19 6 C-19.99 5.34 -20.98 4.68 -22 4 C-21.67 2.68 -21.34 1.36 -21 0 C-21 0.99 -21 1.98 -21 3 C-19.81921875 2.69964844 -18.6384375 2.39929688 -17.421875 2.08984375 C-15.86470377 1.70524122 -14.30740532 1.32115351 -12.75 0.9375 C-11.97269531 0.73833984 -11.19539062 0.53917969 -10.39453125 0.33398438 C-9.64042969 0.15029297 -8.88632812 -0.03339844 -8.109375 -0.22265625 C-7.07248535 -0.48187866 -7.07248535 -0.48187866 -6.01464844 -0.74633789 C-3.74929191 -1.03156637 -2.1631688 -0.68076195 0 0 Z " fill="#30A9EC" transform="translate(875,697)"/>
<path d="M0 0 C5.57894737 3.15789474 5.57894737 3.15789474 7 6 C7.52200618 12.26407421 6.92142038 15.09822453 3 20 C2.67 19.01 2.34 18.02 2 17 C2.7115625 16.1028125 2.7115625 16.1028125 3.4375 15.1875 C5.50809355 12.28866904 5.45469585 10.48600148 5 7 C4.01 6.34 3.02 5.68 2 5 C2 4.34 2 3.68 2 3 C0.9275 2.855625 -0.145 2.71125 -1.25 2.5625 C-3.91662949 2.16250558 -6.41399729 1.72408076 -9 1 C-5.64870516 -0.11709828 -3.51689744 -0.34479387 0 0 Z " fill="#3AB3F2" transform="translate(900,691)"/>
<path d="M0 0 C4.0357846 1.22012093 7.55406335 2.53861668 11 5 C11.33 5.99 11.66 6.98 12 8 C7.0276578 6.50829734 2.58154261 4.39542583 -2 2 C-1.34 1.34 -0.68 0.68 0 0 Z " fill="#317FF8" transform="translate(421,948)"/>
<path d="M0 0 C0.66 0 1.32 0 2 0 C0.36041242 5.23272633 -1.38952035 10.15196636 -4 15 C-4.66 15 -5.32 15 -6 15 C-4.36041242 9.76727367 -2.61047965 4.84803364 0 0 Z " fill="#27D2A0" transform="translate(355,325)"/>
<path d="M0 0 C0 0.66 0 1.32 0 2 C-1.76915475 2.98219627 -3.54038569 3.96065359 -5.3125 4.9375 C-6.29863281 5.48277344 -7.28476562 6.02804687 -8.30078125 6.58984375 C-11 8 -11 8 -14 9 C-12.53824146 5.11305116 -10.69873837 3.99184772 -7 2.25 C-6.113125 1.82203125 -5.22625 1.3940625 -4.3125 0.953125 C-2 0 -2 0 0 0 Z " fill="#1DCE9F" transform="translate(536,341)"/>
<path d="M0 0 C0.66 0 1.32 0 2 0 C2 0.99 2 1.98 2 3 C1.34 3 0.68 3 0 3 C-0.06058594 3.59167969 -0.12117188 4.18335938 -0.18359375 4.79296875 C-0.62012371 8.90978208 -1.08671346 12.95544533 -2 17 C-2.33 17 -2.66 17 -3 17 C-3.40368295 10.54107286 -2.5915262 5.93891422 0 0 Z " fill="#0F8B6A" transform="translate(490,410)"/>
<path d="M0 0 C4.3177458 0.50797009 8.03302114 1.19682779 12 3 C12 3.66 12 4.32 12 5 C10.68 5.33 9.36 5.66 8 6 C8 5.34 8 4.68 8 4 C6.68 4 5.36 4 4 4 C2.66666667 2.66666667 1.33333333 1.33333333 0 0 Z " fill="#0C6FDA" transform="translate(686,808)"/>
<path d="M0 0 C0.66 0 1.32 0 2 0 C2.33 1.32 2.66 2.64 3 4 C2.34 4 1.68 4 1 4 C1 7.96 1 11.92 1 16 C0.01 16 -0.98 16 -2 16 C-1.34 10.72 -0.68 5.44 0 0 Z " fill="#1DCDA3" transform="translate(335,381)"/>
<path d="M0 0 C1.40318642 4.20955927 -0.11775477 6.09608396 -2 10 C-2.99 11.485 -2.99 11.485 -4 13 C-4.66 13 -5.32 13 -6 13 C-4.58707905 8.1725201 -2.57025846 4.2837641 0 0 Z " fill="#21D49C" transform="translate(363,310)"/>
<path d="M0 0 C0.99 0.33 1.98 0.66 3 1 C0.36 4.63 -2.28 8.26 -5 12 C-5.99 11.67 -6.98 11.34 -8 11 C-7.34 10.67 -6.68 10.34 -6 10 C-4.97821857 8.27574383 -3.95869907 6.54917407 -3 4.7890625 C-2.08092727 3.14478395 -1.04489184 1.56733776 0 0 Z " fill="#159BEF" transform="translate(895,718)"/>
<path d="M0 0 C-1.4317521 5.01113235 -3.98445693 6.94469549 -8 10 C-8 6.45595664 -7.39010515 5.89732095 -5.125 3.3125 C-4.59132813 2.68988281 -4.05765625 2.06726563 -3.5078125 1.42578125 C-2 0 -2 0 0 0 Z " fill="#156BF0" transform="translate(716,924)"/>
<path d="M0 0 C3.94139078 1.66751148 6.7892812 4.22710649 10 7 C9.01 7.66 8.02 8.32 7 9 C5.82737096 7.88121617 4.66204862 6.75476949 3.5 5.625 C2.8503125 4.99851562 2.200625 4.37203125 1.53125 3.7265625 C0 2 0 2 0 0 Z " fill="#2685F7" transform="translate(355,901)"/>
<path d="M0 0 C1.13199353 0.9080162 2.25532363 1.82683826 3.375 2.75 C4.00148438 3.26046875 4.62796875 3.7709375 5.2734375 4.296875 C7.08312318 6.08199481 8.00117455 7.67949644 9 10 C8.01 10.495 8.01 10.495 7 11 C5.82439821 9.73742767 4.65977135 8.46462916 3.5 7.1875 C2.8503125 6.47980469 2.200625 5.77210938 1.53125 5.04296875 C0 3 0 3 0 0 Z " fill="#127FFA" transform="translate(347,891)"/>
<path d="M0 0 C2.0343459 1.41519715 2.90410393 2.54982123 3.421875 4.98046875 C3.66273952 6.98176954 3.83532741 8.9909944 4 11 C3.34 10.67 2.68 10.34 2 10 C2 9.01 2 8.02 2 7 C1.34 7 0.68 7 0 7 C0 4.69 0 2.38 0 0 Z " fill="#0662DC" transform="translate(729,846)"/>
<path d="M0 0 C2.73544525 2.38172388 3.92545358 4.70665291 5.25 8.0625 C5.60578125 8.94035156 5.9615625 9.81820312 6.328125 10.72265625 C7 13 7 13 6 15 C4.98965502 13.25595212 3.99207578 11.50450439 3 9.75 C2.1646875 8.28820312 2.1646875 8.28820312 1.3125 6.796875 C0 4 0 4 0 0 Z " fill="#1DD88E" transform="translate(837,226)"/>
<path d="M0 0 C3.3 1.98 6.6 3.96 10 6 C9.67 6.66 9.34 7.32 9 8 C5.56801397 6.76067171 2.69674368 5.49698489 0 3 C0 2.01 0 1.02 0 0 Z " fill="#139BF7" transform="translate(491,777)"/>
<path d="M0 0 C1.5 1.375 1.5 1.375 3 3 C3 3.66 3 4.32 3 5 C5.475 5.99 5.475 5.99 8 7 C8 7.99 8 8.98 8 10 C2.25 6.375 2.25 6.375 0 3 C0 2.01 0 1.02 0 0 Z " fill="#229AEE" transform="translate(668,747)"/>
<path d="M0 0 C0.66 0 1.32 0 2 0 C1.67 2.97 1.34 5.94 1 9 C0.01 9 -0.98 9 -2 9 C-2 7.68 -2 6.36 -2 5 C-1.34 5 -0.68 5 0 5 C0 3.35 0 1.7 0 0 Z " fill="#1268E4" transform="translate(733,884)"/>
<path d="M0 0 C3.81684226 1.55500981 6.19195732 4.03595495 9 7 C8.67 7.99 8.34 8.98 8 10 C7.59007812 9.50628906 7.18015625 9.01257813 6.7578125 8.50390625 C6.21898437 7.86324219 5.68015625 7.22257813 5.125 6.5625 C4.59132813 5.92441406 4.05765625 5.28632812 3.5078125 4.62890625 C2.0777243 2.89194996 2.0777243 2.89194996 0 2 C0 1.34 0 0.68 0 0 Z " fill="#0D69DE" transform="translate(711,821)"/>
<path d="M0 0 C1.38076179 3.83544942 0.85712183 7.07152497 0 11 C-1.5625 12.9375 -1.5625 12.9375 -3 14 C-2.48594831 9.03083364 -1.76615118 4.70973649 0 0 Z " fill="#4FB3F6" transform="translate(307,749)"/>
<path d="M0 0 C-5.20333134 2.24281523 -8.34264585 3.55577239 -14 2 C-14 1.67 -14 1.34 -14 1 C-12.41913952 0.63495397 -10.83516093 0.28339494 -9.25 -0.0625 C-8.36828125 -0.25972656 -7.4865625 -0.45695313 -6.578125 -0.66015625 C-4.01320972 -0.99825872 -2.42908361 -0.81158635 0 0 Z " fill="#4FB9EF" transform="translate(889,694)"/>
<path d="M0 0 C1.32 0.33 2.64 0.66 4 1 C4 1.66 4 2.32 4 3 C5.32 3.66 6.64 4.32 8 5 C8 5.99 8 6.98 8 8 C6.66102417 7.04956626 5.32894573 6.08940853 4 5.125 C3.2575 4.59132813 2.515 4.05765625 1.75 3.5078125 C1.1725 3.01023437 0.595 2.51265625 0 2 C0 1.34 0 0.68 0 0 Z " fill="#1878F9" transform="translate(379,922)"/>
<path d="M0 0 C1.231394 3.69418201 0.64432764 6.2056261 0 10 C-0.66 10 -1.32 10 -2 10 C-2 7.03 -2 4.06 -2 1 C-1.34 0.67 -0.68 0.34 0 0 Z " fill="#22D194" transform="translate(871,828)"/>
<path d="M0 0 C1.74166645 3.23452341 3.08977798 6.43496376 4 10 C3.01 11.485 3.01 11.485 2 13 C1.47212358 11.02270019 0.95287097 9.04309608 0.4375 7.0625 C0.00244141 5.40927734 0.00244141 5.40927734 -0.44140625 3.72265625 C-0.62574219 2.82417969 -0.81007813 1.92570313 -1 1 C-0.67 0.67 -0.34 0.34 0 0 Z " fill="#279BF7" transform="translate(307,817)"/>
<path d="M0 0 C-0.33 0.99 -0.66 1.98 -1 3 C-4.63 3.33 -8.26 3.66 -12 4 C-8.14070855 1.42713903 -4.66785662 0 0 0 Z " fill="#2FDE8E" transform="translate(516,191)"/>
<path d="M0 0 C0.66 0.66 1.32 1.32 2 2 C1.34 4.31 0.68 6.62 0 9 C-0.99 9 -1.98 9 -3 9 C-2.44271087 5.65626525 -1.64826111 2.96687001 0 0 Z " fill="#169772" transform="translate(493,401)"/>
<path d="M0 0 C0.66 0.99 1.32 1.98 2 3 C1.34 3 0.68 3 0 3 C0.20625 3.5775 0.4125 4.155 0.625 4.75 C1.08661261 7.51967567 0.42944945 8.64561267 -1 11 C-1.66 11 -2.32 11 -3 11 C-2.69078116 9.54096742 -2.37751201 8.08279278 -2.0625 6.625 C-1.88847656 5.81289063 -1.71445312 5.00078125 -1.53515625 4.1640625 C-1 2 -1 2 0 0 Z " fill="#32D8A7" transform="translate(346,345)"/>
<path d="M0 0 C0.33 0 0.66 0 1 0 C1.50423019 5.29441695 0.18923033 7.81413519 -3 12 C-3.33 11.01 -3.66 10.02 -4 9 C-3.01439389 7.65599167 -2.01241685 6.32392972 -1 5 C-0.28566879 2.35065178 -0.28566879 2.35065178 0 0 Z " fill="#0E95E9" transform="translate(906,699)"/>
<path d="M0 0 C2.96175123 0.61277612 4.38058783 1.25372522 7 3 C7 3.66 7 4.32 7 5 C4.0625 4.1875 4.0625 4.1875 1 3 C0.67 2.01 0.34 1.02 0 0 Z " fill="#2F81F9" transform="translate(412,944)"/>
<path d="M0 0 C-2 2 -2 2 -3.9453125 2.1953125 C-5.96354167 2.13020833 -7.98177083 2.06510417 -10 2 C-6.80505194 -1.19494806 -4.22040044 -1.35655728 0 0 Z " fill="#0B92E9" transform="translate(716,729)"/>
<path d="M0 0 C2 1.8125 2 1.8125 4 4 C4 4.99 4 5.98 4 7 C4.99 7.33 5.98 7.66 7 8 C6.01 8.33 5.02 8.66 4 9 C0 4.5 0 4.5 0 0 Z " fill="#10B6B8" transform="translate(365,535)"/>
<path d="M0 0 C0 0.66 0 1.32 0 2 C0.66 2.33 1.32 2.66 2 3 C-0.64 2.67 -3.28 2.34 -6 2 C-6 1.34 -6 0.68 -6 0 C-3 -1 -3 -1 0 0 Z " fill="#3B81F9" transform="translate(492,973)"/>
<path d="M0 0 C2.5625 2.25 2.5625 2.25 5 5 C4.67 6.32 4.34 7.64 4 9 C1.525 5.04 1.525 5.04 -1 1 C-0.67 0.67 -0.34 0.34 0 0 Z " fill="#147FF8" transform="translate(340,882)"/>
<path d="M0 0 C0.66 0.33 1.32 0.66 2 1 C1.45773019 4.79588866 -0.20127563 6.47211993 -3 9 C-2.01 6.03 -1.02 3.06 0 0 Z " fill="#30A6F6" transform="translate(311,740)"/>
<path d="M0 0 C0 0.66 0 1.32 0 2 C-1.98 2.99 -3.96 3.98 -6 5 C-6.99 4.34 -7.98 3.68 -9 3 C-2.25 0 -2.25 0 0 0 Z " fill="#33B1F5" transform="translate(357,698)"/>
<path d="M0 0 C3.7952131 1.49097658 5.61042731 3.75700849 8 7 C5.05043472 5.63055898 2.47531189 4.12169591 0 2 C0 1.34 0 0.68 0 0 Z " fill="#0C9271" transform="translate(508,422)"/>
<path d="M0 0 C0.66 0 1.32 0 2 0 C0.90931332 3.77545388 0.0916909 6.47043472 -3 9 C-2.5020163 5.26512223 -2.12508244 3.18762365 0 0 Z " fill="#D7F7F0" transform="translate(501,373)"/>
</svg>
